<?xml version="1.0" encoding="utf-8"?>
<!-- Generator: Adobe Illustrator 23.0.5, SVG Export Plug-In . SVG Version: 6.00 Build 0)  -->
<svg version="1.1" id="Layer_1" xmlns="http://www.w3.org/2000/svg" xmlns:xlink="http://www.w3.org/1999/xlink" x="0px" y="0px"
	 viewBox="0 0 512 512" style="enable-background:new 0 0 512 512;" xml:space="preserve">
<style type="text/css">
	.st0{fill:none;stroke:#010101;stroke-width:3;stroke-miterlimit:10;}
	.st1{fill:#FFFFFF;stroke:#000000;stroke-width:3;stroke-miterlimit:10;}
	.st2{fill:none;stroke:#000000;stroke-width:3;stroke-miterlimit:10;}
</style>
<g>
	<path class="st0" d="M344.1,233.6c-28.9,0-32.9,28.8-32.9,28.8h61.4C372.6,262.4,373,233.6,344.1,233.6z"/>
	<path class="st0" d="M204.8,262.4h-54.4v50h48.2c0.8,0,2.1,0,3.5,0c7.8-0.2,22.4-2.4,22.4-24.3
		C224.5,262.1,204.8,262.4,204.8,262.4z"/>
	<path class="st1" d="M256,32C132.3,32,32,132.3,32,256s100.3,224,224,224c123.7,0,224-100.3,224-224C480,132.3,379.7,32,256,32z
		 M303.2,169.6h77.1v23h-77.1L303.2,169.6L303.2,169.6z M264.2,290.4c0,57-59.4,55.2-59.4,55.2h-54.4h-1.6h-41.3V158.6h41.3h1.6
		h54.4c29.6,0,52.9,16.3,52.9,49.8S229.2,244,229.2,244C266.8,244,264.2,290.4,264.2,290.4z M408.4,287.3h-96.9
		c0,34.7,32.9,32.5,32.9,32.5c31.1,0,30-20.1,30-20.1h32.9c0,53.4-64,49.7-64,49.7c-76.7,0-71.8-71.5-71.8-71.5s-0.1-71.8,71.8-71.8
		C419,206.2,408.4,287.3,408.4,287.3z"/>
	<path class="st2" d="M218,211.3c0-19.4-13.2-19.4-13.2-19.4h-7h-47.4v41.7h51C210.3,233.6,218,230.7,218,211.3z"/>
</g>
</svg>
